<?xml version="1.0" encoding="UTF-8"?>
<svg id="Capa_2" data-name="Capa 2" xmlns="http://www.w3.org/2000/svg" viewBox="0 0 1079.85 1079.49">
  <defs>
    <style>
      .cls-1 {
        fill: none;
      }

      .cls-1, .cls-2, .cls-3 {
        stroke-width: 0px;
      }

      .cls-2 {
        fill: #00e494;
      }

      .cls-3 {
        fill: #44dfa1;
      }
    </style>
  </defs>
  <g id="Capa_7" data-name="Capa 7">
    <g>
      <path class="cls-2" d="M906.72,687.02c0,54.78-44.41,99.19-99.19,99.19-45.7,0-84.17-30.89-95.68-72.94-.15-.61-.32-1.22-.47-1.83-.03-.08-.06-.15-.07-.22-14.76-54.35-47.76-101.19-92.04-133.51-40.45-29.55-90.32-47-144.26-47-17.56,0-34.7,1.84-51.2,5.37-95.75,20.36-170.79,96.69-189.26,193.13-.01.1-.03.19-.06.29-7.53,42.19-44.41,74.2-88.76,74.2-49.79,0-90.17-40.37-90.17-90.17,0-37.64,23.06-69.88,55.81-83.37,1.82-.68,3.62-1.36,5.42-2.05,0,0,.01,0,.03-.01,123.55-47.44,224.94-139.6,284.36-256.66,2.14-4.2,4.22-8.43,6.23-12.71,27.08-49.47,79.63-83.03,140.02-83.03,80.59,0,147.22,59.75,158,137.37.25,2.52.53,5.04.86,7.53,10.36,78.7,62.88,144.11,134.13,172.83,1.9.76,3.8,1.5,5.73,2.21.04.01.08.03.12.06,35.54,15.08,60.46,50.3,60.46,91.34Z"/>
      <circle class="cls-2" cx="251.75" cy="348.6" r="73.34"/>
      <circle class="cls-2" cx="993.62" cy="742.98" r="60.72"/>
      <path class="cls-3" d="M846.26,595.68s-.08-.04-.12-.06c-1.93-.71-3.83-1.44-5.73-2.21-71.25-28.72-123.77-94.13-134.13-172.83-.33-2.5-.61-5.01-.86-7.53-7.89-56.83-45.73-104.09-97.07-125.32-14.18-5.86-28.58,15.73-15.11,23.08,82.8,45.17,90.22,110.14,109.08,236.52,11.5,77.05,28.94,151.84,29.09,152.45,11.51,42.05,30.43,86.41,76.12,86.41,54.78,0,99.19-44.41,99.19-99.19,0-41.04-24.92-76.26-60.46-91.34Z"/>
      <path class="cls-3" d="M448.93,495.3c-125.19,0-302.8,127.74-351.52,211.86-25.09,43.32-1.48,96.55,48.31,96.55,44.35,0,81.22-32.02,88.76-74.2.03-.1.04-.19.06-.29,18.48-96.44,93.52-172.77,189.26-193.13,16.51-3.52,33.64-5.37,51.2-5.37,16.51,0,23.34-35.4-26.07-35.4Z"/>
      <path class="cls-2" d="M298.82,365.05c-3.44,25.07-31.53,23.93-38.23,38.47-3.94,8.56,4.41,17.83,13.4,14.98,29.63-9.42,51.1-37.15,51.1-69.9l-9.72.67c-8.6.59-15.38,7.25-16.55,15.78Z"/>
      <path class="cls-2" d="M993.07,791.3c-.31-7.08-3.93-13.74-9.98-17.42-8.36-5.09-13.79-14.11-17.28-18.53-9.05-11.43-27.84-4.9-27.05,9.66.17,3.23,1.13,6.49,3.01,9.57,10.66,17.46,29.9,29.11,51.86,29.11l-.54-12.4Z"/>
    </g>
    <rect class="cls-1" width="1079.85" height="1079.49"/>
  </g>
</svg>